<?xml version="1.0"?>
<svg xmlns="http://www.w3.org/2000/svg" xmlns:xlink="http://www.w3.org/1999/xlink" viewBox="0 0 64 64" width="512" height="512"><linearGradient id="a" gradientUnits="userSpaceOnUse" x1="-1.839" x2="62.306" y1="65.839" y2="1.694"><stop offset="0" stop-color="#003f8a"/><stop offset=".518" stop-color="#00d7df"/><stop offset="1" stop-color="#006df0"/></linearGradient><linearGradient id="b" x1="-7.324" x2="56.82" xlink:href="#a" y1="60.353" y2="-3.791"/><linearGradient id="c" x1=".392" x2="64.537" xlink:href="#a" y1="68.07" y2="3.925"/><g fill="url(#a)"><path d="m32 0a32 32 0 1 0 32 32 32.036 32.036 0 0 0 -32-32zm0 62a30 30 0 1 1 30-30 30.034 30.034 0 0 1 -30 30z"/><path d="m32 4a28 28 0 1 0 28 28 28.032 28.032 0 0 0 -28-28zm0 54a26 26 0 1 1 26-26 26.029 26.029 0 0 1 -26 26z"/><path d="m32 13a19 19 0 1 0 19 19 19.021 19.021 0 0 0 -19-19zm0 36a17 17 0 1 1 17-17 17.019 17.019 0 0 1 -17 17z"/></g><path d="m20.456 35.29a12.025 12.025 0 0 1 -.456-3.29 1 1 0 0 0 -2 0 14.054 14.054 0 0 0 .532 3.837 1 1 0 0 0 .961.726.97.97 0 0 0 .275-.038 1 1 0 0 0 .688-1.235z" fill="url(#b)"/><path d="m32 44a11.951 11.951 0 0 1 -10.157-5.606 1 1 0 1 0 -1.692 1.066 13.94 13.94 0 0 0 11.849 6.54 1 1 0 0 0 0-2z" fill="url(#c)"/></svg>
